<?xml version="1.0" standalone="no"?>
<!DOCTYPE svg PUBLIC "-//W3C//DTD SVG 20010904//EN"
 "http://www.w3.org/TR/2001/REC-SVG-20010904/DTD/svg10.dtd">
<svg version="1.0" xmlns="http://www.w3.org/2000/svg"
 width="1378.000000pt" height="1378.000000pt" viewBox="0 0 1378.000000 1378.000000"
 preserveAspectRatio="xMidYMid meet">
<metadata>
Created by potrace 1.14, written by Peter Selinger 2001-2017
</metadata>
<g transform="translate(0.000000,1378.000000) scale(0.100000,-0.100000)"
fill="#000000" stroke="none">
<path d="M3788 9022 c-273 -383 -438 -769 -493 -1154 -19 -133 -19 -394 0
-527 34 -236 126 -501 248 -715 138 -242 266 -406 503 -643 94 -95 170 -173
168 -173 -13 0 -196 121 -271 179 -172 133 -383 373 -493 561 -142 240 -258
546 -320 840 -12 58 -25 112 -28 122 -9 21 -532 421 -540 413 -4 -4 -7 -102
-7 -218 0 -180 4 -229 23 -325 32 -158 72 -277 146 -427 219 -446 651 -827
1315 -1159 73 -37 131 -69 129 -71 -8 -8 -250 49 -358 85 -288 95 -523 243
-761 480 -144 144 -264 291 -381 471 l-83 126 -312 101 c-171 56 -318 105
-326 108 -14 5 -14 -1 -1 -53 124 -489 420 -848 894 -1083 298 -148 622 -240
1065 -300 118 -16 401 -40 471 -40 l61 0 -34 118 c-63 218 -77 320 -77 577 0
212 2 240 27 355 68 322 194 587 418 881 76 100 227 267 322 356 l77 71 -2
528 -3 527 -115 -94 c-296 -241 -548 -525 -712 -801 -395 -667 -416 -1405 -62
-2203 l53 -120 -36 40 c-219 244 -363 574 -403 920 -42 375 45 865 237 1335
l39 95 -145 462 c-80 255 -148 463 -151 463 -3 0 -39 -49 -82 -108z"/>
<path d="M7650 8186 c-203 -43 -392 -160 -514 -319 -61 -79 -135 -229 -161
-322 -23 -82 -31 -295 -15 -393 57 -356 348 -647 714 -711 88 -16 266 -13 354
5 270 55 508 246 623 500 102 224 97 549 -11 765 -112 224 -303 383 -547 455
-73 22 -113 27 -233 30 -97 2 -166 -1 -210 -10z m276 -157 c236 -33 460 -188
554 -384 50 -104 70 -199 70 -327 0 -137 -20 -223 -76 -337 -38 -77 -62 -109
-128 -175 -91 -91 -160 -136 -266 -172 -203 -71 -437 -49 -617 57 -77 46 -199
169 -246 249 -136 234 -126 546 24 776 119 184 348 311 581 323 15 0 61 -4
104 -10z"/>
<path d="M9717 8190 c-198 -36 -391 -150 -523 -308 -70 -85 -147 -240 -176
-357 -30 -124 -30 -324 1 -440 54 -201 185 -389 353 -503 257 -175 626 -203
903 -68 233 114 405 322 471 571 29 109 27 372 -4 479 -84 294 -323 528 -618
607 -88 24 -321 35 -407 19z m340 -176 c143 -36 310 -144 397 -253 90 -116
133 -236 143 -401 17 -300 -127 -559 -382 -685 -125 -62 -196 -79 -335 -79
-138 0 -197 12 -315 69 -164 78 -305 237 -362 408 -25 75 -27 95 -28 237 0
145 2 160 28 235 92 260 309 443 576 485 70 11 203 4 278 -16z"/>
<path d="M5670 7315 l0 -845 273 0 c201 0 290 4 342 15 157 33 287 130 352
263 38 76 38 77 38 202 0 121 -1 128 -32 191 -44 89 -129 169 -230 216 l-78
36 25 15 c58 36 137 129 158 184 59 159 20 347 -92 445 -107 93 -241 123 -547
123 l-209 0 0 -845z m575 640 c84 -43 118 -94 123 -185 10 -176 -96 -287 -298
-310 -47 -5 -118 -10 -157 -10 l-73 0 0 271 0 271 173 -4 c170 -3 175 -4 232
-33z m-22 -690 c274 -58 380 -340 196 -524 -82 -81 -152 -99 -404 -103 l-170
-3 -3 323 -2 322 157 0 c99 0 184 -6 226 -15z"/>
<path d="M11110 7315 l0 -845 85 0 85 0 0 391 c0 215 4 389 8 387 5 -1 172
-177 373 -390 l364 -387 113 -1 113 0 -163 173 c-423 448 -703 748 -706 756
-1 4 178 176 399 382 l402 374 -112 3 -112 3 -337 -317 -337 -317 -3 316 -2
317 -85 0 -85 0 0 -845z"/>
<path d="M8207 6190 c-63 -16 -112 -47 -161 -101 -131 -145 -86 -385 88 -477
46 -24 61 -27 156 -27 116 0 162 16 227 77 l32 31 -22 17 c-21 17 -23 17 -51
-7 -81 -68 -191 -87 -288 -50 -147 57 -203 253 -109 381 85 119 274 139 388
42 37 -33 40 -33 61 -17 l22 16 -37 37 c-21 20 -60 47 -86 58 -54 24 -163 34
-220 20z"/>
<path d="M11150 6187 c-98 -28 -185 -116 -211 -212 -19 -68 -7 -185 24 -238
128 -219 448 -207 557 20 34 69 34 187 1 260 -27 61 -94 126 -156 154 -57 25
-157 33 -215 16z m169 -62 c59 -20 108 -61 139 -114 23 -39 27 -57 26 -121 0
-85 -20 -133 -76 -187 -46 -44 -102 -65 -173 -65 -144 0 -245 102 -245 250 0
73 15 114 61 167 66 75 175 103 268 70z"/>
<path d="M5670 5885 l0 -295 170 0 170 0 0 30 0 30 -140 0 -140 0 0 115 0 115
140 0 140 0 0 30 0 30 -140 0 -141 0 3 93 3 92 138 3 137 3 0 24 0 25 -170 0
-170 0 0 -295z"/>
<path d="M6440 5885 l0 -298 148 5 c166 6 204 17 264 75 104 101 110 307 13
420 -58 68 -116 87 -282 91 l-143 4 0 -297z m285 222 c61 -18 120 -81 140
-151 39 -134 -23 -262 -144 -296 -20 -5 -80 -10 -133 -10 l-98 0 0 233 c0 129
3 237 8 241 9 10 176 -2 227 -17z"/>
<path d="M7290 5958 c1 -281 11 -316 105 -359 83 -38 198 -15 243 48 37 54 42
90 42 314 l0 219 -30 0 -30 0 0 -221 c0 -259 -5 -279 -77 -311 -48 -21 -87
-18 -135 10 -53 31 -58 59 -58 301 l0 221 -30 0 -30 0 0 -222z"/>
<path d="M9010 5893 c-74 -157 -136 -290 -138 -294 -2 -5 11 -9 30 -9 32 0 34
3 80 100 l47 100 126 0 126 0 47 -100 c45 -96 48 -100 79 -100 l32 0 -45 98
c-25 53 -87 186 -137 294 -51 109 -96 198 -102 198 -5 -1 -71 -129 -145 -287z
m195 61 c25 -54 45 -101 45 -105 0 -5 -43 -9 -95 -9 -52 0 -95 4 -95 9 0 11
90 201 96 201 2 0 24 -43 49 -96z"/>
<path d="M9660 6155 c0 -23 3 -24 68 -27 l67 -3 3 -268 2 -268 28 3 27 3 3
268 2 267 65 0 c63 0 65 1 65 25 l0 25 -165 0 -165 0 0 -25z"/>
<path d="M10452 5888 l3 -293 28 -3 27 -3 0 295 0 296 -30 0 -30 0 2 -292z"/>
<path d="M11800 5886 l0 -296 30 0 30 0 2 222 3 221 194 -221 c106 -122 195
-222 197 -222 2 0 4 133 4 295 l0 295 -25 0 -25 0 0 -221 c0 -125 -4 -219 -9
-217 -5 2 -93 100 -195 218 -103 118 -191 217 -196 218 -6 2 -10 -105 -10
-292z"/>
<path d="M2870 5679 c-302 -16 -649 -71 -1043 -165 -91 -22 -108 -29 -112 -47
-2 -12 -16 -85 -30 -162 -26 -137 -105 -457 -144 -584 -11 -36 -19 -66 -18
-67 1 -2 79 22 172 52 446 144 823 211 1237 221 479 11 812 -46 1266 -218 104
-40 159 -47 208 -29 15 6 68 53 119 105 109 112 166 144 278 152 136 10 242
-28 377 -137 41 -33 99 -72 128 -86 47 -24 61 -26 135 -22 68 4 117 17 292 76
429 145 764 225 1277 307 117 18 211 34 208 34 -182 34 -515 49 -725 32 -282
-23 -507 -69 -866 -176 -119 -36 -228 -65 -242 -65 -19 0 -37 15 -77 65 -128
161 -256 225 -449 225 -150 0 -258 -52 -417 -200 -48 -44 -97 -83 -110 -86
-15 -4 -95 16 -216 55 -382 120 -638 169 -1005 191 -361 23 -766 -22 -1116
-123 -64 -18 -117 -31 -117 -28 0 15 74 277 80 284 21 25 420 113 650 144 190
25 699 26 879 0 296 -42 567 -110 825 -207 74 -27 138 -50 142 -50 15 0 -101
112 -181 175 -198 155 -438 254 -737 305 -108 18 -406 42 -488 38 -19 0 -100
-5 -180 -9z"/>
</g>
</svg>
